<?xml version="1.0" encoding="UTF-8"?><svg id="Layer_1" xmlns="http://www.w3.org/2000/svg" viewBox="0 0 336.15 360.89"><defs><style>.cls-1{fill:#39044e;}</style></defs><path id="Down_Arrow" class="cls-1" d="M327.7,178.67c0,4.09-1.56,8.19-4.69,11.31l-160,160c-6.25,6.25-16.38,6.25-22.62,0s-6.25-16.38,0-22.62l148.69-148.69L140.39,29.98c-6.25-6.25-6.25-16.38,0-22.62s16.38-6.25,22.62,0l160,160c3.12,3.12,4.69,7.22,4.69,11.31h0ZM195.02,167.35L35.02,7.35c-6.25-6.25-16.38-6.25-22.62,0s-6.25,16.38,0,22.62l148.69,148.69L12.39,327.35c-6.25,6.25-6.25,16.38,0,22.62s16.38,6.25,22.62,0l160-160c3.12-3.12,4.69-7.22,4.69-11.31s-1.56-8.19-4.69-11.31h0Z"/></svg>