<?xml version="1.0" encoding="UTF-8"?><svg id="Layer_1" xmlns="http://www.w3.org/2000/svg" viewBox="0 0 336.15 360.89"><defs><style>.cls-1{fill:#39044e;}</style></defs><path id="Down_Arrow" class="cls-1" d="M7.7,178.67c0-4.09,1.56-8.19,4.69-11.31L172.39,7.35c6.25-6.25,16.38-6.25,22.62,0s6.25,16.38,0,22.62L46.33,178.67l148.69,148.69c6.25,6.25,6.25,16.38,0,22.62s-16.38,6.25-22.62,0L12.39,189.98c-3.12-3.12-4.69-7.22-4.69-11.31h0ZM140.39,189.98l160,160c6.25,6.25,16.38,6.25,22.62,0s6.25-16.38,0-22.62l-148.69-148.69L323.02,29.98c6.25-6.25,6.25-16.38,0-22.62s-16.38-6.25-22.62,0l-160,160c-3.12,3.12-4.69,7.22-4.69,11.31s1.56,8.19,4.69,11.31h0Z"/></svg>