<?xml version="1.0" encoding="UTF-8"?>
<svg id="Layer_1" xmlns="http://www.w3.org/2000/svg" version="1.1" viewBox="0 0 512 512">
  <!-- Generator: Adobe Illustrator 29.0.1, SVG Export Plug-In . SVG Version: 2.1.0 Build 192)  -->
  <defs>
    <style>
      .st0 {
        fill: #2db715;
      }
    </style>
  </defs>
  <path class="st0" d="M256,0C114.8,0,0,114.8,0,256s114.8,256,256,256,256-114.8,256-256S397.2,0,256,0ZM256,480c-123.5,0-224-100.5-224-224S132.5,32,256,32s224,100.5,224,224-100.5,224-224,224ZM379.8,169.7c6.2,6.2,6.2,16.4,0,22.6l-150,150c-3.1,3.1-7.2,4.7-11.3,4.7s-8.2-1.6-11.3-4.7l-75-75c-6.2-6.2-6.2-16.4,0-22.6s16.4-6.2,22.6,0l63.7,63.7,138.7-138.7c6.2-6.3,16.4-6.3,22.6,0h0Z"/>
</svg>