<?xml version="1.0" encoding="UTF-8"?><svg id="Layer_1" xmlns="http://www.w3.org/2000/svg" viewBox="0 0 382.22 405.33"><defs><style>.cls-1{fill:#999;fill-rule:evenodd;}</style></defs><path class="cls-1" d="M29.18,277.48c11.31,0,20.48,9.17,20.48,20.48v40.96c0,5.43,2.16,10.64,6,14.48h0c3.84,3.84,9.05,6,14.48,6h245.76c5.43,0,10.64-2.16,14.48-6s6-9.05,6-14.48v-40.96c0-11.31,9.17-20.48,20.48-20.48s20.48,9.17,20.48,20.48v40.96c0,16.29-6.47,31.92-18,43.44-11.52,11.52-27.15,18-43.44,18H70.14c-16.29,0-31.92-6.47-43.45-18-11.52-11.52-17.99-27.15-17.99-43.44v-40.96c0-11.31,9.17-20.48,20.48-20.48Z"/><path class="cls-1" d="M76.14,148.6c8,8,20.97,8,28.96,0l67.44-67.44v196.32c0,11.31,9.17,20.48,20.48,20.48s20.48-9.17,20.48-20.48V81.16l67.44,67.44c8,8,20.97,8,28.96,0,8-8,8-20.97,0-28.96L207.51,17.24c-.48-.48-.98-.93-1.51-1.36-.22-.18-.46-.34-.69-.52-.3-.23-.6-.46-.92-.68-.28-.19-.57-.35-.86-.52-.28-.17-.56-.35-.86-.51-.29-.16-.6-.29-.9-.43-.31-.14-.61-.3-.92-.43-.29-.12-.59-.22-.88-.32-.34-.12-.67-.25-1.01-.35-.29-.09-.59-.15-.88-.23-.35-.09-.7-.19-1.06-.26-.33-.07-.67-.1-1.01-.15-.32-.05-.65-.11-.98-.14-.6-.06-1.21-.09-1.81-.09-.07,0-.13-.01-.2-.01s-.13,0-.2.01c-.61,0-1.21.03-1.81.09-.33.03-.65.09-.98.14-.34.05-.67.09-1.01.15-.36.07-.71.17-1.06.26-.29.07-.59.14-.88.23-.34.1-.68.23-1.01.35-.29.11-.59.2-.88.32-.31.13-.62.28-.92.43-.3.14-.6.27-.9.43-.29.16-.57.34-.86.51-.29.17-.58.34-.86.52-.32.21-.62.45-.92.68-.23.17-.47.33-.69.51-.52.43-1.03.88-1.51,1.36l-102.39,102.39c-8,8-8,20.97,0,28.96Z"/></svg>